# File created by Blade
# Date/Time:  Tue Jan 27 17:16:36 2015
#---------------------------------------------------------
:version 1.10
:name HOM
:units
  mass 1.0
  length 1.000000
  angle deg
:documentation
     Acclaim Skeleton File
:root
   axis xyz
   order TX TY TZ RX RY RZ
   position 0.000000 0.000000 0.000000
   orientation 0 0 0
:bonedata
   begin
      id 1
      name Spine_dum
      direction 0.000000 1.000000 0.000000
      length 7.539951
      axis 0.0 0.0 0.0 xyz
   end
   begin
      id 2
      name LeftUpLeg_dum
      direction 1.000000 0.000000 0.000000
      length 3.345476
      axis 0.0 0.0 0.0 xyz
   end
   begin
      id 3
      name RightUpLeg_dum
      direction -1.000000 0.000000 0.000000
      length 3.345476
      axis 0.0 0.0 0.0 xyz
   end
   begin
      id 4
      name Spine
      direction 0.000000 1.000000 0.000000
      length 0.000000
      axis 0.0 0.0 0.0 xyz
      dof rx ry rz
   end
   begin
      id 5
      name Spine_dum1
      direction 0.000000 1.000000 0.000000
      length 15.093809
      axis 0.0 0.0 0.0 xyz
   end
   begin
      id 6
      name Spine_dum2
      direction 0.000000 1.000000 0.000000
      length 9.738928
      axis 0.0 0.0 0.0 xyz
   end
   begin
      id 7
      name Spine_dum3
      direction 0.000000 1.000000 0.000000
      length 9.738928
      axis 0.0 0.0 0.0 xyz
   end
   begin
      id 8
      name Head
      direction 0.000000 1.000000 0.000000
      length 4.527550
      axis 0.0 0.0 0.0 xyz
      dof rx ry rz
   end
   begin
      id 9
      name LeftShoulder
      direction 1.000000 0.000000 0.000000
      length 7.084015
      axis 0.0 0.0 -90.0 xyz
      dof rx ry rz
   end
   begin
      id 10
      name LeftArm
      direction 1.000000 0.000000 0.000000
      length 10.259319
      axis 0.0 0.0 -90.0 xyz
      dof rx ry rz
   end
   begin
      id 11
      name LeftForeArm
      direction 1.000000 0.000000 0.000000
      length 9.896984
      axis 0.0 0.0 -90.0 xyz
      dof ry rz rx
   end
   begin
      id 12
      name LeftHand
      direction 0.000000 0.000000 0.000000
      length 0.000000
      axis 0.0 0.0 -90.0 xyz
      dof rx ry rz
   end
   begin
      id 13
      name LeftHand_dum1
      direction 0.000000 0.000000 0.000000
      length 0.000000
      axis 0.0 0.0 -90.0 xyz
   end
   begin
      id 14
      name LeftHand_dum2
      direction 1.000000 0.000000 0.000000
      length 3.937000
      axis 0.0 0.0 -90.0 xyz
   end
   begin
      id 15
      name LeftHandThumb1
      direction 0.000000 0.000000 1.000000
      length 3.937000
      axis 0.0 0.0 -90.0 xyz
      dof rx rz ry
   end
   begin
      id 16
      name RightShoulder
      direction -1.000000 0.000000 0.000000
      length 7.084015
      axis 0.0 0.0 90.0 xyz
      dof rx ry rz
   end
   begin
      id 17
      name RightArm
      direction -1.000000 0.000000 0.000000
      length 10.259319
      axis 0.0 0.0 90.0 xyz
      dof rx ry rz
   end
   begin
      id 18
      name RightForeArm
      direction -1.000000 0.000000 0.000000
      length 9.896984
      axis 0.0 0.0 90.0 xyz
      dof ry rz rx
   end
   begin
      id 19
      name RightHand
      direction 0.000000 0.000000 0.000000
      length 0.000000
      axis 0.0 0.0 90.0 xyz
      dof rx ry rz
   end
   begin
      id 20
      name RightHand_dum1
      direction 0.000000 0.000000 0.000000
      length 0.000000
      axis 0.0 0.0 90.0 xyz
   end
   begin
      id 21
      name RightHand_dum2
      direction -1.000000 0.000000 0.000000
      length 3.937000
      axis 0.0 0.0 90.0 xyz
   end
   begin
      id 22
      name RightHandThumb1
      direction 0.000000 0.000000 1.000000
      length 3.937000
      axis 0.0 0.0 90.0 xyz
      dof rx rz ry
   end
   begin
      id 23
      name LeftUpLeg
      direction 0.000000 -1.000000 0.000000
      length 19.114733
      axis 0.0 0.0 0.0 xyz
      dof rx ry rz
   end
   begin
      id 24
      name LeftLeg
      direction 0.000000 -1.000000 0.000000
      length 16.045604
      axis 0.0 0.0 0.0 xyz
      dof rx ry rz
   end
   begin
      id 25
      name LeftFoot
      direction 0.000000 -0.258819 0.965926
      length 5.543155
      axis 15.0 0.0 0.0 xyz
      dof rx ry rz
   end
   begin
      id 26
      name LeftToeBase
      direction 0.000000 0.000000 1.000000
      length 2.952750
      axis 0.0 0.0 0.0 xyz
      dof rx ry rz
   end
   begin
      id 27
      name RightUpLeg
      direction 0.000000 -1.000000 0.000000
      length 19.114733
      axis 0.0 0.0 0.0 xyz
      dof rx ry rz
   end
   begin
      id 28
      name RightLeg
      direction 0.000000 -1.000000 0.000000
      length 16.045604
      axis 0.0 0.0 0.0 xyz
      dof rx ry rz
   end
   begin
      id 29
      name RightFoot
      direction 0.000000 -0.258819 0.965926
      length 5.543155
      axis 15.0 0.0 0.0 xyz
      dof rx ry rz
   end
   begin
      id 30
      name RightToeBase
      direction 0.000000 0.000000 1.000000
      length 2.952750
      axis 0.0 0.0 0.0 xyz
      dof rx ry rz
   end
:hierarchy
   begin
      root Spine_dum LeftUpLeg_dum RightUpLeg_dum
      Spine_dum Spine
      LeftUpLeg_dum LeftUpLeg
      RightUpLeg_dum RightUpLeg
      Spine Spine_dum1 Spine_dum2 Spine_dum3
      Spine_dum1 Head
      Spine_dum2 LeftShoulder
      Spine_dum3 RightShoulder
      LeftShoulder LeftArm
      LeftArm LeftForeArm
      LeftForeArm LeftHand
      LeftHand LeftHand_dum1 LeftHand_dum2
      LeftHand_dum1 LeftHandThumb1
      RightShoulder RightArm
      RightArm RightForeArm
      RightForeArm RightHand
      RightHand RightHand_dum1 RightHand_dum2
      RightHand_dum1 RightHandThumb1
      LeftUpLeg LeftLeg
      LeftLeg LeftFoot
      LeftFoot LeftToeBase
      RightUpLeg RightLeg
      RightLeg RightFoot
      RightFoot RightToeBase
   end

# File created by Blade
# Date/Time:  Tue Jan 27 17:16:27 2015
# Frame Rate: 120.000 fps
#------------------------------------------------------
:FULLY-SPECIFIED
:DEGREES
1095
root -2.875807 36.835590 1.444338 -0.869606 -5.447582 7.358825
Spine 6.213319 10.848390 -9.307088
Head -3.330548 -4.310738 6.368817
LeftShoulder -4.045767 -13.049363 11.708512
LeftArm -9.121395 -20.588475 -29.977579
LeftForeArm 6.402833 -0.000000 62.265741
LeftHand -15.739550 -0.000000 54.963716
LeftHandThumb1 -26.253704 0.000000 33.147579
RightShoulder -4.793857 -18.060324 2.578098
RightArm 15.601029 -15.922886 56.825917
RightForeArm -175.802276 -0.000000 29.980704
RightHand 0.552517 0.000000 4.999514
RightHandThumb1 -24.326973 -0.000000 -32.862282
LeftUpLeg -76.009344 16.020790 -1.943131
LeftLeg 85.420805 -0.000000 -0.000000
LeftFoot 7.565428 -1.375653 -25.526649
LeftToeBase 15.300007 -0.000000 -0.000000
RightUpLeg -8.599591 -7.620875 -0.519713
RightLeg 23.791931 -0.000000 -0.000000
RightFoot -19.076394 -10.924191 0.052857
RightToeBase 2.336423 -0.000000 -0.000000
1096
root -2.878205 36.835427 1.425359 -0.896463 -5.323642 7.316806
Spine 6.366709 10.908118 -9.214663
Head -3.397716 -4.405725 6.325662
LeftShoulder -4.002673 -13.099878 11.699089
LeftArm -9.017710 -20.561744 -30.099572
LeftForeArm 6.413619 -0.000000 62.370143
LeftHand -15.823898 -0.000000 55.131716
LeftHandThumb1 -26.253704 0.000000 33.147579
RightShoulder -4.757361 -18.066603 2.529212
RightArm 15.583604 -15.990034 56.806192
RightForeArm -175.763348 -0.000000 29.883907
RightHand 0.606421 0.000000 4.765632
RightHandThumb1 -24.326973 -0.000000 -32.862282
LeftUpLeg -75.773841 16.086092 -2.312390
LeftLeg 82.363944 -0.000000 -0.000000
LeftFoot 7.259563 -1.052348 -25.443626
LeftToeBase 15.110338 -0.000000 -0.000000
RightUpLeg -8.543772 -7.600686 -0.458621
RightLeg 23.719119 -0.000000 -0.000000
RightFoot -19.019832 -10.987763 0.101469
RightToeBase 2.434278 -0.000000 -0.000000
1097
root -2.884374 36.834124 1.410429 -0.943407 -5.214006 7.274314
Spine 6.524064 11.006849 -9.137127
Head -3.432230 -4.510043 6.282709
LeftShoulder -3.975060 -13.106731 11.722533
LeftArm -8.852258 -20.547606 -30.254959
LeftForeArm 6.472517 0.000000 62.438563
LeftHand -15.931310 0.000000 55.469806
LeftHandThumb1 -26.253704 0.000000 33.147579
RightShoulder -4.731320 -18.104130 2.489105
RightArm 15.590780 -16.041059 56.806121
RightForeArm -175.856368 -0.000000 29.766245
RightHand 0.558314 -0.000000 4.930464
RightHandThumb1 -24.326973 -0.000000 -32.862282
LeftUpLeg -75.474331 16.161074 -2.675042
LeftLeg 79.268588 -0.000000 -0.000000
LeftFoot 7.223469 -0.743311 -26.352435
LeftToeBase 14.578185 -0.000000 -0.000000
RightUpLeg -8.471632 -7.691368 -0.403883
RightLeg 23.647851 -0.000000 -0.000000
RightFoot -18.990910 -11.038171 0.062113
RightToeBase 2.439963 -0.000000 -0.000000
1098
root -2.884116 36.834745 1.393619 -0.991176 -5.121104 7.264584
Spine 6.685884 11.118199 -9.076303
Head -3.451471 -4.654618 6.252012
LeftShoulder -3.942395 -13.114830 11.725094
LeftArm -8.702606 -20.580793 -30.419561
LeftForeArm 6.495017 -0.000000 62.529664
LeftHand -15.818287 -0.000000 55.364584
LeftHandThumb1 -26.253704 0.000000 33.147579
RightShoulder -4.707036 -18.113918 2.438630
RightArm 15.618501 -16.162517 56.769520
RightForeArm -175.885047 -0.000000 29.625947
RightHand 0.707003 -0.000000 4.829707
RightHandThumb1 -24.326973 -0.000000 -32.862282
LeftUpLeg -75.134099 16.230248 -3.045397
LeftLeg 76.055278 -0.000000 -0.000000
LeftFoot 7.092920 -0.575583 -26.181565
LeftToeBase 15.072644 -0.000000 -0.000000
RightUpLeg -8.403165 -7.698431 -0.390523
RightLeg 23.564541 -0.000000 -0.000000
RightFoot -18.960656 -11.143439 0.056256
RightToeBase 2.455362 -0.000000 -0.000000
1099
root -2.885983 36.836830 1.378451 -1.076684 -5.019092 7.244785
Spine 6.904753 11.221145 -8.998335
Head -3.506258 -4.799628 6.252008
LeftShoulder -3.908542 -13.161174 11.702819
LeftArm -8.564149 -20.576217 -30.548231
LeftForeArm 6.564860 -0.000000 62.636342
LeftHand -15.970218 -0.000000 55.367580
LeftHandThumb1 -26.253704 0.000000 33.147579
RightShoulder -4.680887 -18.103354 2.393704
RightArm 15.645736 -16.247709 56.741391
RightForeArm -175.907005 0.000000 29.475022
RightHand 0.734968 0.000000 4.665416
RightHandThumb1 -24.326973 -0.000000 -32.862282
LeftUpLeg -74.702142 16.298620 -3.375246
LeftLeg 72.762897 -0.000000 -0.000000
LeftFoot 7.166426 -0.546804 -26.153505
LeftToeBase 15.209528 -0.000000 -0.000000
RightUpLeg -8.278200 -7.735587 -0.368467
RightLeg 23.442309 -0.000000 -0.000000
RightFoot -18.910597 -11.240705 0.042624
RightToeBase 2.490237 -0.000000 -0.000000
